<?xml version="1.0"?>
<svg xmlns="http://www.w3.org/2000/svg" xmlns:xlink="http://www.w3.org/1999/xlink" version="1.1" id="Capa_1" x="0px" y="0px" viewBox="0 0 512 512" style="enable-background:new 0 0 512 512;" xml:space="preserve" width="512px" height="512px" class=""><g><g>
	<g>
		<path d="M377,168.348h-11.527v-72.35c0-4.286-1.834-8.367-5.038-11.214l-29.35-26.073V15c0-8.284-6.716-15-15-15h-120.17    c-8.284,0-15,6.716-15,15v43.711l-29.35,26.073c-3.204,2.847-5.038,6.928-5.038,11.214v72.35H135c-8.284,0-15,6.716-15,15    s6.716,15,15,15c9.682,0,233.233,0,242,0c8.284,0,15-6.716,15-15S385.284,168.348,377,168.348z" data-original="#000000" class="active-path" data-old_color="#000000" fill="#FFFFFF"/>
	</g>
</g><g>
	<g>
		<path d="M377,313.652c-6.654,0-48.177,0-57.486,0v-62.994c0-8.284-6.716-15-15-15s-15,6.716-15,15v62.994h-67.027v-62.994    c0-8.284-6.716-15-15-15s-15,6.716-15,15v62.994c-9.309,0-50.833,0-57.487,0c-8.284,0-15,6.716-15,15s6.716,15,15,15h11.527v72.35    c0,4.286,1.833,8.367,5.038,11.214l29.35,26.073V497c0,8.284,6.716,15,15,15h120.17c8.284,0,15-6.716,15-15v-43.711l29.35-26.073    c3.204-2.847,5.038-6.928,5.038-11.214v-72.35H377c8.284,0,15-6.716,15-15S385.284,313.652,377,313.652z M256,452.826    c-22.056,0-40-17.944-40-40c0-22.056,17.944-40,40-40c22.056,0,40,17.944,40,40C296,434.882,278.056,452.826,256,452.826z" data-original="#000000" class="active-path" data-old_color="#000000" fill="#FFFFFF"/>
	</g>
</g></g> </svg>
